PathFileType	4	(X/Y/Z)	/Users/itak/Documents/Research/Walk-IL/dataset/trc/00162_00008.trc
DataRate	CameraRate	NumFrames	NumMarkers	Units	OrigDataRate	OrigDataStartFrame	OrigNumFrames
100.000000	100.000000	4	53	mm	100.000000	231	617
Frame#	Time	RPSI			LPSI			L3			STRN			T10			C7			CLAV			RBAK			LBAK			LSHO			LUPA			LAEL			LAOL			LWTS			LWPS			LFRA			LIFD			LHPS			LHTS			RSHO			RUPA			RAEL			RAOL			RWTS			RWPS			RFRA			RIFD			RHTS			RHPS			RBHD			LFHD			RFHD			LBHD			LHIP			RHIP			RASI			LASI			LKNE			LTHI			LANK			LTIP			LTOE			LMT1			LMT5			LHEE			RKNE			RTHI			RANK			RTIP			RTOE			RMT1			RMT5			RHEE			
		X1	Y1	Z1	X2	Y2	Z2	X3	Y3	Z3	X4	Y4	Z4	X5	Y5	Z5	X6	Y6	Z6	X7	Y7	Z7	X8	Y8	Z8	X9	Y9	Z9	X10	Y10	Z10	X11	Y11	Z11	X12	Y12	Z12	X13	Y13	Z13	X14	Y14	Z14	X15	Y15	Z15	X16	Y16	Z16	X17	Y17	Z17	X18	Y18	Z18	X19	Y19	Z19	X20	Y20	Z20	X21	Y21	Z21	X22	Y22	Z22	X23	Y23	Z23	X24	Y24	Z24	X25	Y25	Z25	X26	Y26	Z26	X27	Y27	Z27	X28	Y28	Z28	X29	Y29	Z29	X30	Y30	Z30	X31	Y31	Z31	X32	Y32	Z32	X33	Y33	Z33	X34	Y34	Z34	X35	Y35	Z35	X36	Y36	Z36	X37	Y37	Z37	X38	Y38	Z38	X39	Y39	Z39	X40	Y40	Z40	X41	Y41	Z41	X42	Y42	Z42	X43	Y43	Z43	X44	Y44	Z44	X45	Y45	Z45	X46	Y46	Z46	X47	Y47	Z47	X48	Y48	Z48	X49	Y49	Z49	X50	Y50	Z50	X51	Y51	Z51	X52	Y52	Z52	X53	Y53	Z53	

232	2.31	-1995.693969726562	1039.179443359375	55.32821273803711	-1992.990966796875	1040.021484375	-66.24763488769531	-1991.838745117188	1077.91064453125	-0.2205669283866882	-1709.824462890625	1255.805786132812	-7.098855018615723	-2006.374877929688	1246.065795898438	0.1475994735956192	-1905.2001953125	1504.208984375	-17.81994438171387	-1721.322998046875	1373.668701171875	-19.30023002624512	-1991.800170898438	1341.958251953125	97.78083801269531	-1919.1875	1477.405395507812	-118.5498046875	-1848.325805664062	1452.16748046875	-199.3786163330078	-1904.146606445312	1325.369995117188	-267.7680053710938	-1926.622314453125	1109.538818359375	-281.4388427734375	-1964.579223632812	1100.019897460938	-201.2068023681641	-1842.687622070312	865.622314453125	-268.3890380859375	-1932.226806640625	855.743408203125	-294.7472534179688	-1930.40185546875	998.6653442382812	-296.8894653320312	-1840.1064453125	689.1734008789062	-239.4128875732422	-1919.917236328125	784.0421142578125	-295.9090270996094	-1846.272705078125	786.469482421875	-292.295654296875	-1838.779052734375	1477.94970703125	161.0775909423828	-1863.181030273438	1416.538452148438	234.0135040283203	-1905.14306640625	1133.879028320312	304.9055786132812	-1922.628662109375	1123.699829101562	208.3050994873047	-1790.68359375	892.3223266601562	280.3237609863281	-1862.374267578125	885.655517578125	335.5298461914062	-1885.141967773438	1059.752075195312	322.8125610351562	-1800.136352539062	702.609375	266.4830932617188	-1773.503051757812	795.6127319335938	291.6892395019531	-1841.426025390625	800.0748901367188	334.5540161132812	-1797.136596679688	1664.2861328125	50.76446151733398	-1661.0830078125	1663.029174804688	-120.6064071655273	-1626.632080078125	1668.036743164062	4.188818454742432	-1835.617309570312	1668.00048828125	-80.93735504150391	-1888.65966796875	976.8944702148438	-186.72607421875	-1847.784423828125	987.1757202148438	186.0968322753906	-1763.991455078125	1012.432739257812	135.4342956542969	-1763.825317382812	1013.536254882812	-122.4846115112305	-1653.926391601562	522.900390625	-167.4293670654297	-1723.393676757812	647.6954345703125	-194.9146728515625	-1543.241821289062	59.22718048095703	-188.0136566162109	-1600.290649414062	299.0372619628906	-192.2624816894531	-1350.639526367188	153.6699981689453	-166.0785064697266	-1390.7958984375	129.4726104736328	-118.8046951293945	-1441.748168945312	94.32817840576172	-226.9429321289062	-1587.80224609375	41.19076919555664	-116.4477996826172	-1913.283569335938	493.6241455078125	132.1314086914062	-1822.479125976562	750.9325561523438	180.3053588867188	-2091.6279296875	36.06703567504883	91.20310211181641	-1925.628173828125	373.522216796875	106.9371795654297	-1866.181762695312	38.70339965820312	80.82611083984375	-1916.380493164062	36.51361846923828	29.37884521484375	-1982.224243164062	34.14071273803711	138.0505218505859	-2134.725830078125	37.33453750610352	17.92517280578613	
233	2.32	-1989.625	1037.938110351562	55.00214767456055	-1986.767211914062	1038.70263671875	-66.61793518066406	-1985.735717773438	1076.667114257812	-0.6017323732376099	-1703.728393554688	1254.635986328125	-7.737286567687988	-2000.380859375	1244.793334960938	-0.3386921584606171	-1899.213623046875	1502.890502929688	-18.94093894958496	-1715.250854492188	1372.462280273438	-20.25531005859375	-1985.756469726562	1340.92529296875	97.08271026611328	-1913.275024414062	1475.837646484375	-119.6314086914062	-1842.498901367188	1450.393676757812	-200.4579467773438	-1898.75	1323.564819335938	-268.4129638671875	-1922.3505859375	1108.034423828125	-281.635009765625	-1959.647338867188	1098.688598632812	-201.1729125976562	-1841.709228515625	862.8851318359375	-269.5091857910156	-1931.474853515625	854.482666015625	-295.0196838378906	-1927.551025390625	997.3325805664062	-297.1000366210938	-1843.8603515625	686.0609741210938	-240.7041015625	-1920.3955078125	782.6275634765625	-296.3467712402344	-1846.706909179688	783.8200073242188	-293.2894897460938	-1832.715087890625	1477.11865234375	159.9716339111328	-1857.049194335938	1415.810424804688	233.0534515380859	-1898.567138671875	1133.076538085938	304.212646484375	-1916.025512695312	1122.763061523438	207.6535949707031	-1783.41357421875	891.7601928710938	279.8280334472656	-1855.1884765625	884.9725341796875	335.0316162109375	-1878.396606445312	1059.004760742188	322.193603515625	-1792.22802734375	702.0697021484375	266.2247619628906	-1765.97412109375	795.192626953125	291.3843994140625	-1833.785766601562	799.641357421875	334.2837524414062	-1791.530395507812	1662.941284179688	49.35053253173828	-1655.325317382812	1661.974731445312	-121.8980102539062	-1620.99267578125	1667.062255859375	2.946294784545898	-1829.909057617188	1666.557495117188	-82.38086700439453	-1881.792236328125	975.711669921875	-186.9248199462891	-1841.078369140625	986.0628051757812	186.0962524414062	-1758.082763671875	1011.037048339844	135.3399505615234	-1757.39453125	1012.361267089844	-122.5211410522461	-1647.450439453125	522.0980224609375	-167.5604095458984	-1716.896850585938	646.4879150390625	-195.3116149902344	-1532.321166992188	59.60006713867188	-188.2236938476562	-1591.742065429688	298.9378662109375	-192.3855743408203	-1340.590454101562	155.6600341796875	-165.4305419921875	-1380.774536132812	131.1476593017578	-118.3099365234375	-1430.909790039062	95.55353546142578	-226.6236114501953	-1577.02880859375	41.07475280761719	-116.8389663696289	-1909.648559570312	492.6441040039062	131.8002471923828	-1817.658447265625	749.5363159179688	180.0753479003906	-2091.517333984375	36.255859375	91.21166229248047	-1922.700317382812	372.5680236816406	106.618293762207	-1866.147094726562	38.65691757202148	80.83367156982422	-1916.31298828125	36.42976379394531	29.38677024841309	-1982.177001953125	34.11384201049805	138.0785064697266	-2134.7734375	37.78747940063477	18.01919746398926	
234	2.33	-1983.419921875	1036.696411132812	54.54935073852539	-1980.383666992188	1037.401489257812	-67.09944915771484	-1979.480834960938	1075.426635742188	-1.070276618003845	-1697.476440429688	1253.489868164062	-8.440159797668457	-1994.225219726562	1243.511108398438	-0.8725037574768066	-1893.102172851562	1501.57666015625	-20.15209770202637	-1709.03173828125	1371.270629882812	-21.2812557220459	-1979.566284179688	1339.903930664062	96.30939483642578	-1907.227661132812	1474.272705078125	-120.7929229736328	-1836.530883789062	1448.629150390625	-201.6175689697266	-1893.187622070312	1321.764770507812	-269.1284484863281	-1917.8818359375	1106.531616210938	-281.892333984375	-1954.5703125	1097.372924804688	-201.1982879638672	-1840.492919921875	860.228515625	-270.6079711914062	-1930.458374023438	853.2742309570312	-295.3139343261719	-1924.45751953125	996.0169067382812	-297.3376159667969	-1847.844848632812	683.0238647460938	-242.1352691650391	-1920.576538085938	781.283203125	-296.7672729492188	-1846.869750976562	781.25927734375	-294.2273254394531	-1826.507690429688	1476.310424804688	158.7830200195312	-1850.772827148438	1415.111694335938	232.0231628417969	-1891.889282226562	1132.302856445312	303.428466796875	-1909.321533203125	1121.869873046875	206.9093933105469	-1776.041015625	891.2437133789062	279.2096557617188	-1847.905029296875	884.3129272460938	334.39697265625	-1871.55712890625	1058.284912109375	321.4747009277344	-1784.212036132812	701.5757446289062	265.7872009277344	-1758.330200195312	794.8011474609375	290.9319152832031	-1826.11328125	799.1766357421875	333.8196105957031	-1785.868286132812	1661.6015625	47.85031127929688	-1649.473999023438	1660.989013671875	-123.2443237304688	-1615.297119140625	1666.168701171875	1.663467526435852	-1824.117309570312	1665.112060546875	-83.93113708496094	-1874.79443359375	974.6489868164062	-187.2418975830078	-1834.459716796875	984.8964233398438	185.9881896972656	-1752.07666015625	1009.616516113281	135.2186279296875	-1750.744262695312	1011.247497558594	-122.5918579101562	-1640.732788085938	521.281005859375	-167.7666778564453	-1710.05029296875	645.429931640625	-195.7034149169922	-1522.488037109375	59.60903167724609	-188.4530334472656	-1583.579711914062	298.6048889160156	-192.5727233886719	-1331.406494140625	156.7732543945312	-164.8993530273438	-1371.63916015625	132.0691375732422	-117.8993453979492	-1421.128784179688	96.15559387207031	-226.3635559082031	-1567.373413085938	40.72567367553711	-117.2545547485352	-1905.931518554688	491.6519165039062	131.3959350585938	-1812.77001953125	748.1095581054688	179.7659759521484	-2091.41455078125	36.50590133666992	91.23721313476562	-1919.679931640625	371.6020812988281	106.2371978759766	-1866.160400390625	38.62066650390625	80.80599975585938	-1916.276733398438	36.34732818603516	29.37368202209473	-1982.152954101562	34.09022521972656	138.0898590087891	-2134.84375	38.37765502929688	18.16686058044434	
235	2.34	-1977.07763671875	1035.467651367188	53.94516372680664	-1973.831176757812	1036.128662109375	-67.71544647216797	-1973.0703125	1074.201171875	-1.652449488639832	-1691.063354492188	1252.3759765625	-9.212253570556641	-1987.9033203125	1242.227783203125	-1.472051382064819	-1886.867553710938	1500.274536132812	-21.4555835723877	-1702.667724609375	1370.098266601562	-22.38027191162109	-1973.225341796875	1338.895141601562	95.45893096923828	-1901.046020507812	1472.723510742188	-122.0320434570312	-1830.42138671875	1446.88330078125	-202.8554382324219	-1887.466186523438	1319.979858398438	-269.9167785644531	-1913.217651367188	1105.039306640625	-282.2122802734375	-1949.352905273438	1096.0810546875	-201.2862701416016	-1838.996459960938	857.6677856445312	-271.6674194335938	-1929.158569335938	852.1231079101562	-295.6362609863281	-1921.1162109375	994.7247924804688	-297.606689453125	-1851.394287109375	680.1808471679688	-243.5434417724609	-1920.427856445312	780.0128173828125	-297.1735229492188	-1846.724487304688	778.8001708984375	-295.1064147949219	-1820.155639648438	1475.527587890625	157.5132598876953	-1844.350952148438	1414.44189453125	230.9198303222656	-1885.100219726562	1131.560180664062	302.5616149902344	-1902.51416015625	1121.020385742188	206.0806274414062	-1768.57080078125	890.772705078125	278.467529296875	-1840.51806640625	883.6763305664062	333.6309204101562	-1864.613037109375	1057.59228515625	320.66162109375	-1776.111083984375	701.1227416992188	265.1710205078125	-1750.580932617188	794.4320678710938	290.3221435546875	-1818.435180664062	798.6498413085938	333.1436462402344	-1780.145751953125	1660.272827148438	46.26709365844727	-1643.524780273438	1660.083618164062	-124.6413421630859	-1609.541381835938	1665.366333007812	0.3394691050052643	-1818.239135742188	1663.675415039062	-85.58633422851562	-1867.677001953125	973.6969604492188	-187.6759033203125	-1828.0322265625	983.6654052734375	185.7548370361328	-1745.979736328125	1008.186218261719	135.0785064697266	-1743.875732421875	1010.191833496094	-122.6925888061523	-1633.78173828125	520.4425048828125	-168.0292510986328	-1702.884643554688	644.516357421875	-196.0708160400391	-1513.742309570312	59.2317008972168	-188.7327575683594	-1575.794555664062	298.0369873046875	-192.8298797607422	-1323.079467773438	156.9708862304688	-164.4622192382812	-1363.404296875	132.2030639648438	-117.5609359741211	-1412.377197265625	96.10832214355469	-226.1702423095703	-1558.856323242188	40.11054611206055	-117.7464904785156	-1902.14013671875	490.6636962890625	130.9293975830078	-1807.835693359375	746.67236328125	179.3902130126953	-2091.3203125	36.84277725219727	91.28001403808594	-1916.5810546875	370.6376953125	105.8017730712891	-1866.227783203125	38.59618759155273	80.74627685546875	-1916.275024414062	36.26852798461914	29.34127426147461	-1982.15283203125	34.06947708129883	138.0835113525391	-2134.939453125	39.13727569580078	18.36897850036621	
